<?xml version="1.0" standalone="no"?><!DOCTYPE svg PUBLIC "-//W3C//DTD SVG 1.1//EN" "http://www.w3.org/Graphics/SVG/1.1/DTD/svg11.dtd"><svg t="1601451580024" class="icon" viewBox="0 0 1024 1024" version="1.1" xmlns="http://www.w3.org/2000/svg" p-id="3932" xmlns:xlink="http://www.w3.org/1999/xlink" width="200" height="200"><defs><style type="text/css"></style></defs><path d="M128 448a64 64 0 0 0-64 64v384a64 64 0 0 0 64 64h768a64 64 0 0 0 64-64V512a64 64 0 0 0-64-64H128z m0-64h768a128 128 0 0 1 128 128v384a128 128 0 0 1-128 128H128a128 128 0 0 1-128-128V512a128 128 0 0 1 128-128zM704 384V256a192 192 0 1 0-384 0v128H256V256a256 256 0 1 1 512 0v128h-64z m0 0V256a192 192 0 1 0-384 0v128H256V256a256 256 0 1 1 512 0v128h-64z" fill="#333333" p-id="3933"></path><path d="M544 800a32 32 0 1 1-64 0V640a32 32 0 0 1 64 0v160z" fill="#333333" p-id="3934"></path></svg>